<svg width="119" height="38" viewBox="0 0 119 38" fill="none" xmlns="http://www.w3.org/2000/svg">
<g clip-path="url(#clip0)">
<path d="M0 1.0686L15.5152 1.0686L26.2112 11.4936L26.2112 22.7195L8.75854 5.80433L8.70407 36.9379L-3.10237e-07 36.9379L0 1.0686Z" fill="#979797" fill-opacity="0.62"/>
<path d="M25.7112 11.7045L25.7112 21.5386L9.10652 5.44529L8.2606 4.62543L8.25854 5.80346L8.20495 36.4379L0.5 36.4379L0.5 1.5686L15.3118 1.5686L25.7112 11.7045Z" stroke="#979797" stroke-opacity="0.34"/>
<path d="M39 36.9355L23.4881 36.9355L12.7937 26.5089L12.7937 15.2782L30.2464 32.1901L30.2992 1.06458L39 1.06458L39 36.9355Z" fill="#979797" fill-opacity="0.62"/>
<path d="M13.2937 26.298L13.2937 16.4589L29.8985 32.5492L30.7444 33.3689L30.7464 32.191L30.7984 1.56458L38.5 1.56458L38.5 36.4355L23.6915 36.4355L13.2937 26.298Z" stroke="#979797" stroke-opacity="0.34"/>
</g>
<path d="M52.96 35.1565V36.5565H44V22.5565H52.96V23.9565H45.68V28.7565H51.84V30.1565H45.68V35.1565H52.96ZM54.3409 22.5565H64.9009V23.9565H60.4609V36.5565H58.7809V23.9565H54.3409V22.5565ZM68.473 36.5565H66.793V22.5565H74.953V23.9565H68.473V28.7565H73.833V30.1565H68.473V36.5565ZM86.8978 35.1565V36.5565H78.2578V22.5565H79.9378V35.1565H86.8978ZM88.7852 22.5565H90.4652V36.5565H88.7852V22.5565ZM104.749 25.1565H103.069V24.7765C103.069 24.5765 103.055 24.4499 103.029 24.3965C103.015 24.3299 102.949 24.2499 102.829 24.1565C102.709 24.0632 102.615 24.0099 102.549 23.9965C102.482 23.9699 102.329 23.9565 102.089 23.9565H97.1288C96.8888 23.9565 96.7354 23.9699 96.6688 23.9965C96.6021 24.0099 96.5088 24.0632 96.3888 24.1565C96.2688 24.2499 96.1954 24.3299 96.1688 24.3965C96.1554 24.4499 96.1488 24.5765 96.1488 24.7765V34.3365C96.1488 34.5365 96.1554 34.6699 96.1688 34.7365C96.1954 34.7899 96.2688 34.8632 96.3888 34.9565C96.5088 35.0499 96.6021 35.1099 96.6688 35.1365C96.7354 35.1499 96.8888 35.1565 97.1288 35.1565H102.089C102.329 35.1565 102.482 35.1499 102.549 35.1365C102.615 35.1099 102.709 35.0499 102.829 34.9565C102.949 34.8632 103.015 34.7899 103.029 34.7365C103.055 34.6699 103.069 34.5365 103.069 34.3365V33.9565H104.749V34.7565C104.749 35.1565 104.589 35.4899 104.269 35.7565L103.789 36.1565C103.469 36.4232 103.149 36.5565 102.829 36.5565H96.3888C96.0688 36.5565 95.7488 36.4232 95.4288 36.1565L94.9488 35.7565C94.6288 35.4899 94.4688 35.1565 94.4688 34.7565V24.3565C94.4688 23.9565 94.6288 23.6232 94.9488 23.3565L95.4288 22.9565C95.7488 22.6899 96.0688 22.5565 96.3888 22.5565H102.829C103.149 22.5565 103.469 22.6899 103.789 22.9565L104.269 23.3565C104.589 23.6232 104.749 23.9565 104.749 24.3565V25.1565ZM114.13 30.1565H109.35C109.03 30.1565 108.71 30.0232 108.39 29.7565L107.85 29.2965C107.57 29.0699 107.43 28.8032 107.43 28.4965V24.3565C107.43 23.9565 107.59 23.6232 107.91 23.3565L108.39 22.9565C108.71 22.6899 109.03 22.5565 109.35 22.5565H114.67C114.99 22.5565 115.31 22.6899 115.63 22.9565L116.11 23.3565C116.43 23.6232 116.59 23.9565 116.59 24.3565V25.1565H114.91V24.7765C114.91 24.5765 114.897 24.4499 114.87 24.3965C114.857 24.3299 114.79 24.2499 114.67 24.1565C114.55 24.0632 114.457 24.0099 114.39 23.9965C114.324 23.9699 114.17 23.9565 113.93 23.9565H110.09C109.85 23.9565 109.697 23.9699 109.63 23.9965C109.564 24.0099 109.47 24.0632 109.35 24.1565C109.23 24.2499 109.157 24.3299 109.13 24.3965C109.117 24.4499 109.11 24.5765 109.11 24.7765V27.9365C109.11 28.1365 109.117 28.2699 109.13 28.3365C109.157 28.3899 109.23 28.4632 109.35 28.5565C109.47 28.6499 109.564 28.7099 109.63 28.7365C109.697 28.7499 109.85 28.7565 110.09 28.7565H114.87C115.19 28.7565 115.51 28.8899 115.83 29.1565L116.31 29.5565C116.63 29.8232 116.79 30.1565 116.79 30.5565V34.7565C116.79 35.1565 116.63 35.4899 116.31 35.7565L115.83 36.1565C115.51 36.4232 115.19 36.5565 114.87 36.5565H109.15C108.83 36.5565 108.51 36.4232 108.19 36.1565L107.71 35.7565C107.39 35.4899 107.23 35.1565 107.23 34.7565V33.9565H108.91V34.3365C108.91 34.5365 108.917 34.6699 108.93 34.7365C108.957 34.7899 109.03 34.8632 109.15 34.9565C109.27 35.0499 109.364 35.1099 109.43 35.1365C109.497 35.1499 109.65 35.1565 109.89 35.1565H114.13C114.37 35.1565 114.524 35.1499 114.59 35.1365C114.657 35.1099 114.75 35.0499 114.87 34.9565C114.99 34.8632 115.057 34.7899 115.07 34.7365C115.097 34.6699 115.11 34.5365 115.11 34.3365V30.9765C115.11 30.7765 115.097 30.6499 115.07 30.5965C115.057 30.5299 114.99 30.4499 114.87 30.3565C114.75 30.2632 114.657 30.2099 114.59 30.1965C114.524 30.1699 114.37 30.1565 114.13 30.1565Z" fill="#979797"/>
<defs>
<clipPath id="clip0">
<rect width="39" height="38" fill="white"/>
</clipPath>
</defs>
</svg>
